<?xml version="1.0" encoding="utf-8"?>
<svg viewBox="0 0 163.19 156.79" style="enable-background:new 0 0 163.19 156.79;" xmlns="http://www.w3.org/2000/svg">
  <path d="M44.8,116.79H22.4v-6.4h22.4V116.79z M73.6,116.79H51.2v-6.4h22.4V116.79z M102.4,116.79H80v-6.4h22.4V116.79z M67.2,91.19 c0-3.53-2.87-6.4-6.4-6.4c-3.53,0-6.4,2.87-6.4,6.4c0,3.53,2.87,6.4,6.4,6.4C64.33,97.59,67.2,94.72,67.2,91.19z M48,91.19 c0-7.06,5.74-12.8,12.8-12.8c7.06,0,12.8,5.74,12.8,12.8c0,7.06-5.74,12.8-12.8,12.8C53.74,103.99,48,98.25,48,91.19z M92.8,84.79 c-3.53,0-6.4,2.87-6.4,6.4c0,3.53,2.87,6.4,6.4,6.4c3.53,0,6.4-2.87,6.4-6.4C99.2,87.66,96.33,84.79,92.8,84.79z M92.8,103.99 c-7.06,0-12.8-5.74-12.8-12.8c0-7.06,5.74-12.8,12.8-12.8c7.06,0,12.8,5.74,12.8,12.8C105.6,98.25,99.86,103.99,92.8,103.99z M0,55.99v73.6c0,1.77,1.43,3.2,3.2,3.2h99.2v-6.4h-96v-67.2h70.4v-6.4H3.2C1.43,52.79,0,54.22,0,55.99z M112.96,72.14 c1.33,0.42,2.24,1.65,2.24,3.05v67.33l7.68,6.58l8.32-9.51v-8.4c0-0.85,0.34-1.66,0.94-2.26l7.33-7.34l-7.33-7.34 c-0.6-0.6-0.94-1.41-0.94-2.26v-6.4c0-0.85,0.34-1.66,0.94-2.26l7.33-7.34l-7.33-7.34c-0.6-0.6-0.94-1.42-0.94-2.26V75.22 c0-1.39,0.9-2.63,2.23-3.05c16.45-5.22,26.18-22.14,22.62-39.37c-2.57-12.42-12.12-22.37-24.32-25.36 c-10.4-2.55-21.06-0.32-29.25,6.1C94.29,19.96,89.6,29.6,89.6,39.99C89.6,54.56,99.21,67.78,112.96,72.14z M83.2,39.99 c0-12.36,5.59-23.84,15.33-31.49s22.39-10.3,34.72-7.28c14.6,3.57,26,15.46,29.07,30.28v0c4.06,19.66-6.49,39-24.72,45.98v7.57 l8.66,8.66c1.25,1.25,1.25,3.27,0,4.52l-8.66,8.66v3.75l8.66,8.66c1.25,1.25,1.25,3.27,0,4.53l-8.66,8.66v8.27 c0,0.77-0.28,1.52-0.79,2.11l-11.2,12.8c-0.63,0.72-1.52,1.09-2.41,1.09c-0.74,0-1.48-0.25-2.08-0.77l-11.2-9.6 c-0.71-0.61-1.12-1.49-1.12-2.43V77.45C93.61,71.59,83.2,56.52,83.2,39.99z M123.2,47.57c4.41,0,8-3.59,8-8c0-4.41-3.59-8-8-8 c-4.41,0-8,3.59-8,8C115.2,43.99,118.79,47.57,123.2,47.57z M123.2,25.17c7.94,0,14.4,6.46,14.4,14.4c0,7.94-6.46,14.4-14.4,14.4 c-7.94,0-14.4-6.46-14.4-14.4C108.8,31.63,115.26,25.17,123.2,25.17z" style="fill: rgb(255, 255, 255);"/>
</svg>