<svg id="visual" viewBox="0 0 2560 1559" width="2560" height="1559" xmlns="http://www.w3.org/2000/svg" xmlns:xlink="http://www.w3.org/1999/xlink" version="1.1"><g stroke-width="1" stroke-linejoin="bevel"><path d="M1176.8 757.5L1405.2 805.5L1457.2 510.7Z" fill="#246688" stroke="#246688"></path><path d="M1457.2 510.7L1149.8 514.7L1176.8 757.5Z" fill="#19435d" stroke="#19435d"></path><path d="M1457.2 510.7L1447.2 286.8L1149.8 514.7Z" fill="#0c2435" stroke="#0c2435"></path><path d="M1405.2 805.5L1668.7 816.5L1457.2 510.7Z" fill="#246688" stroke="#246688"></path><path d="M1457.2 510.7L1724.7 255.8L1447.2 286.8Z" fill="#297ea6" stroke="#297ea6"></path><path d="M1100.8 1031.3L1457.2 1036.3L1405.2 805.5Z" fill="#277297" stroke="#277297"></path><path d="M1405.2 805.5L1457.2 1036.3L1668.7 816.5Z" fill="#246688" stroke="#246688"></path><path d="M1668.7 816.5L1733.7 526.7L1457.2 510.7Z" fill="#00101c" stroke="#00101c"></path><path d="M872.3 769.5L1100.8 1031.3L1176.8 757.5Z" fill="#0c2435" stroke="#0c2435"></path><path d="M1176.8 757.5L1100.8 1031.3L1405.2 805.5Z" fill="#112e42" stroke="#112e42"></path><path d="M1447.2 286.8L1120.8 234.8L1149.8 514.7Z" fill="#19435d" stroke="#19435d"></path><path d="M1149.8 514.7L872.3 769.5L1176.8 757.5Z" fill="#246688" stroke="#246688"></path><path d="M834.3 494.7L872.3 769.5L1149.8 514.7Z" fill="#205a7a" stroke="#205a7a"></path><path d="M1120.8 234.8L834.3 494.7L1149.8 514.7Z" fill="#277297" stroke="#277297"></path><path d="M1457.2 1036.3L1669.7 1012.3L1668.7 816.5Z" fill="#15384f" stroke="#15384f"></path><path d="M1668.7 816.5L1976.1 799.5L1733.7 526.7Z" fill="#246688" stroke="#246688"></path><path d="M1733.7 526.7L1724.7 255.8L1457.2 510.7Z" fill="#0c2435" stroke="#0c2435"></path><path d="M1447.2 286.8L1441.2 0L1120.8 234.8Z" fill="#246688" stroke="#246688"></path><path d="M872.3 769.5L862.3 1054.3L1100.8 1031.3Z" fill="#19435d" stroke="#19435d"></path><path d="M1100.8 1031.3L1119.8 1280.2L1457.2 1036.3Z" fill="#00101c" stroke="#00101c"></path><path d="M584.9 773.5L862.3 1054.3L872.3 769.5Z" fill="#246688" stroke="#246688"></path><path d="M1120.8 234.8L818.3 261.8L834.3 494.7Z" fill="#0c2435" stroke="#0c2435"></path><path d="M834.3 494.7L584.9 773.5L872.3 769.5Z" fill="#246688" stroke="#246688"></path><path d="M1673.7 0L1441.2 0L1447.2 286.8Z" fill="#19435d" stroke="#19435d"></path><path d="M1120.8 234.8L825.3 0L818.3 261.8Z" fill="#246688" stroke="#246688"></path><path d="M1441.2 0L1161.8 0L1120.8 234.8Z" fill="#112e42" stroke="#112e42"></path><path d="M862.3 1054.3L1119.8 1280.2L1100.8 1031.3Z" fill="#246688" stroke="#246688"></path><path d="M1457.2 1036.3L1435.2 1306.2L1669.7 1012.3Z" fill="#205a7a" stroke="#205a7a"></path><path d="M1974.1 1027.3L1976.1 799.5L1668.7 816.5Z" fill="#1d4e6b" stroke="#1d4e6b"></path><path d="M1733.7 526.7L2023.1 275.8L1724.7 255.8Z" fill="#277297" stroke="#277297"></path><path d="M1119.8 1280.2L1435.2 1306.2L1457.2 1036.3Z" fill="#246688" stroke="#246688"></path><path d="M1669.7 1012.3L1974.1 1027.3L1668.7 816.5Z" fill="#0c2435" stroke="#0c2435"></path><path d="M1976.1 799.5L2019.1 548.7L1733.7 526.7Z" fill="#205a7a" stroke="#205a7a"></path><path d="M2015.1 0L1673.7 0L1724.7 255.8Z" fill="#277297" stroke="#277297"></path><path d="M1724.7 255.8L1673.7 0L1447.2 286.8Z" fill="#19435d" stroke="#19435d"></path><path d="M818.3 261.8L589.9 486.7L834.3 494.7Z" fill="#277297" stroke="#277297"></path><path d="M589.9 486.7L584.9 773.5L834.3 494.7Z" fill="#277297" stroke="#277297"></path><path d="M1737.7 1337.2L1974.1 1027.3L1669.7 1012.3Z" fill="#205a7a" stroke="#205a7a"></path><path d="M1976.1 799.5L2277.6 777.5L2019.1 548.7Z" fill="#081a28" stroke="#081a28"></path><path d="M2019.1 548.7L2023.1 275.8L1733.7 526.7Z" fill="#246688" stroke="#246688"></path><path d="M1161.8 0L825.3 0L1120.8 234.8Z" fill="#00101c" stroke="#00101c"></path><path d="M818.3 261.8L540.9 275.8L589.9 486.7Z" fill="#1d4e6b" stroke="#1d4e6b"></path><path d="M1435.2 1306.2L1737.7 1337.2L1669.7 1012.3Z" fill="#1d4e6b" stroke="#1d4e6b"></path><path d="M1732.7 1559L1737.7 1337.2L1435.2 1306.2Z" fill="#205a7a" stroke="#205a7a"></path><path d="M862.3 1054.3L880.3 1323.2L1119.8 1280.2Z" fill="#15384f" stroke="#15384f"></path><path d="M1119.8 1280.2L1414.2 1559L1435.2 1306.2Z" fill="#19435d" stroke="#19435d"></path><path d="M589.9 1278.2L880.3 1323.2L862.3 1054.3Z" fill="#277297" stroke="#277297"></path><path d="M312.4 743.5L544.9 1001.3L584.9 773.5Z" fill="#205a7a" stroke="#205a7a"></path><path d="M584.9 773.5L544.9 1001.3L862.3 1054.3Z" fill="#00101c" stroke="#00101c"></path><path d="M579.9 0L540.9 275.8L818.3 261.8Z" fill="#19435d" stroke="#19435d"></path><path d="M298.4 534.7L312.4 743.5L584.9 773.5Z" fill="#246688" stroke="#246688"></path><path d="M1110.8 1559L1414.2 1559L1119.8 1280.2Z" fill="#0c2435" stroke="#0c2435"></path><path d="M1995.1 1559L1995.1 1286.2L1737.7 1337.2Z" fill="#246688" stroke="#246688"></path><path d="M1737.7 1337.2L1995.1 1286.2L1974.1 1027.3Z" fill="#297ea6" stroke="#297ea6"></path><path d="M2283.6 1028.3L2277.6 777.5L1976.1 799.5Z" fill="#19435d" stroke="#19435d"></path><path d="M2023.1 275.8L2015.1 0L1724.7 255.8Z" fill="#205a7a" stroke="#205a7a"></path><path d="M880.3 1559L1110.8 1559L880.3 1323.2Z" fill="#0c2435" stroke="#0c2435"></path><path d="M880.3 1323.2L1110.8 1559L1119.8 1280.2Z" fill="#112e42" stroke="#112e42"></path><path d="M2283.6 1028.3L1976.1 799.5L1974.1 1027.3Z" fill="#081a28" stroke="#081a28"></path><path d="M2019.1 548.7L2298.6 529.7L2023.1 275.8Z" fill="#0c2435" stroke="#0c2435"></path><path d="M2023.1 275.8L2263.6 246.8L2015.1 0Z" fill="#277297" stroke="#277297"></path><path d="M544.9 1001.3L589.9 1278.2L862.3 1054.3Z" fill="#205a7a" stroke="#205a7a"></path><path d="M825.3 0L579.9 0L818.3 261.8Z" fill="#277297" stroke="#277297"></path><path d="M2277.6 777.5L2298.6 529.7L2019.1 548.7Z" fill="#15384f" stroke="#15384f"></path><path d="M1414.2 1559L1732.7 1559L1435.2 1306.2Z" fill="#1d4e6b" stroke="#1d4e6b"></path><path d="M298.4 534.7L584.9 773.5L589.9 486.7Z" fill="#0c2435" stroke="#0c2435"></path><path d="M544.9 1001.3L299.4 1077.3L589.9 1278.2Z" fill="#15384f" stroke="#15384f"></path><path d="M298.4 534.7L589.9 486.7L540.9 275.8Z" fill="#205a7a" stroke="#205a7a"></path><path d="M558.9 1559L880.3 1559L880.3 1323.2Z" fill="#112e42" stroke="#112e42"></path><path d="M2298.6 529.7L2263.6 246.8L2023.1 275.8Z" fill="#112e42" stroke="#112e42"></path><path d="M282.4 239.8L298.4 534.7L540.9 275.8Z" fill="#205a7a" stroke="#205a7a"></path><path d="M2289.6 1314.2L2283.6 1028.3L1995.1 1286.2Z" fill="#081a28" stroke="#081a28"></path><path d="M1995.1 1286.2L2283.6 1028.3L1974.1 1027.3Z" fill="#00101c" stroke="#00101c"></path><path d="M2277.6 777.5L2560 768.5L2298.6 529.7Z" fill="#15384f" stroke="#15384f"></path><path d="M0 795.5L299.4 1077.3L312.4 743.5Z" fill="#297ea6" stroke="#297ea6"></path><path d="M312.4 743.5L299.4 1077.3L544.9 1001.3Z" fill="#19435d" stroke="#19435d"></path><path d="M589.9 1278.2L558.9 1559L880.3 1323.2Z" fill="#277297" stroke="#277297"></path><path d="M579.9 0L282.4 239.8L540.9 275.8Z" fill="#277297" stroke="#277297"></path><path d="M0 1267.2L270.4 1333.2L299.4 1077.3Z" fill="#15384f" stroke="#15384f"></path><path d="M1732.7 1559L1995.1 1559L1737.7 1337.2Z" fill="#205a7a" stroke="#205a7a"></path><path d="M2560 0L2283.6 0L2263.6 246.8Z" fill="#112e42" stroke="#112e42"></path><path d="M2263.6 246.8L2283.6 0L2015.1 0Z" fill="#19435d" stroke="#19435d"></path><path d="M1995.1 1559L2289.6 1314.2L1995.1 1286.2Z" fill="#15384f" stroke="#15384f"></path><path d="M2560 1009.3L2560 768.5L2277.6 777.5Z" fill="#1d4e6b" stroke="#1d4e6b"></path><path d="M270.4 1333.2L558.9 1559L589.9 1278.2Z" fill="#1d4e6b" stroke="#1d4e6b"></path><path d="M579.9 0L278.4 0L282.4 239.8Z" fill="#1d4e6b" stroke="#1d4e6b"></path><path d="M2560 1009.3L2277.6 777.5L2283.6 1028.3Z" fill="#205a7a" stroke="#205a7a"></path><path d="M2298.6 529.7L2560 298.8L2263.6 246.8Z" fill="#246688" stroke="#246688"></path><path d="M2560 768.5L2560 484.7L2298.6 529.7Z" fill="#1d4e6b" stroke="#1d4e6b"></path><path d="M0 795.5L312.4 743.5L298.4 534.7Z" fill="#15384f" stroke="#15384f"></path><path d="M299.4 1077.3L270.4 1333.2L589.9 1278.2Z" fill="#15384f" stroke="#15384f"></path><path d="M0 499.7L298.4 534.7L282.4 239.8Z" fill="#081a28" stroke="#081a28"></path><path d="M2560 484.7L2560 298.8L2298.6 529.7Z" fill="#15384f" stroke="#15384f"></path><path d="M2289.6 1314.2L2560 1009.3L2283.6 1028.3Z" fill="#15384f" stroke="#15384f"></path><path d="M0 228.8L0 499.7L282.4 239.8Z" fill="#112e42" stroke="#112e42"></path><path d="M0 499.7L0 795.5L298.4 534.7Z" fill="#0c2435" stroke="#0c2435"></path><path d="M1995.1 1559L2306.6 1559L2289.6 1314.2Z" fill="#277297" stroke="#277297"></path><path d="M2289.6 1314.2L2560 1332.2L2560 1009.3Z" fill="#205a7a" stroke="#205a7a"></path><path d="M278.4 0L0 228.8L282.4 239.8Z" fill="#297ea6" stroke="#297ea6"></path><path d="M0 795.5L0 1064.3L299.4 1077.3Z" fill="#00101c" stroke="#00101c"></path><path d="M270.4 1333.2L275.4 1559L558.9 1559Z" fill="#277297" stroke="#277297"></path><path d="M0 1559L275.4 1559L270.4 1333.2Z" fill="#297ea6" stroke="#297ea6"></path><path d="M2560 298.8L2560 0L2263.6 246.8Z" fill="#246688" stroke="#246688"></path><path d="M2306.6 1559L2560 1332.2L2289.6 1314.2Z" fill="#277297" stroke="#277297"></path><path d="M0 1064.3L0 1267.2L299.4 1077.3Z" fill="#297ea6" stroke="#297ea6"></path><path d="M278.4 0L0 0L0 228.8Z" fill="#15384f" stroke="#15384f"></path><path d="M2306.6 1559L2560 1559L2560 1332.2Z" fill="#277297" stroke="#277297"></path><path d="M0 1267.2L0 1559L270.4 1333.2Z" fill="#19435d" stroke="#19435d"></path></g></svg>