<?xml version="1.0" encoding="utf-8"?>
<svg viewBox="0 0 512 640" style="enable-background:new 0 0 512 512;" xmlns="http://www.w3.org/2000/svg">
  <path d="M75.5,214.7c0.4,0,0.8,0,1.3-0.1l116.7-18.5c2.7-0.4,4.9-2.1,6-4.6l48.8-107.6c1.8-4,0-8.8-4-10.6c-1.4-0.6-3-0.9-4.6-0.6  L123,91.2c-2.7,0.4-4.9,2.1-6,4.6L68.2,203.4c-1.8,4,0,8.8,4,10.6C73.2,214.4,74.3,214.7,75.5,214.7z M133.9,172.2l29.4,12.4  l-57.7,9.1L133.9,172.2z M138.9,148.3l-5.6-42.5l77.6-12.3L138.9,148.3z M124.2,159.5l-28.3,21.6l24.1-53.2L124.2,159.5z   M188.1,177.8l-39.5-16.7l72-54.8L188.1,177.8z"/>
  <path d="M80.9,49.7c8.6-6.5,17.6-12.5,27-17.8l-7.8-14c-10.1,5.7-19.7,12-28.9,19C50.5,52.7,32.5,71.6,19.1,91.5l13.3,8.9  C44.8,81.9,61.6,64.4,80.9,49.7z"/>
  <path d="M494.7,277.5c-4.8-35.1-22.3-72.2-49.4-104.4c-35-41.7-80.3-68.5-121.7-72.4c-2.3-5.6-5.4-10.9-9.1-15.8l-29.1-38.2  c-17.3-22.7-47-33.4-83.6-30.1c-35.3,3.1-73.2,18.9-106.7,44.4C61.7,86.4,36.4,118.8,24.1,152c-12.8,34.5-10.4,66,6.9,88.6  l16.7,21.9c-3.3,4.6-6.1,9.5-8.2,14.7l-18.2,44.4c-10.8,26.4-5,57.4,16.4,87.4c20.6,28.9,53.4,53.5,92.3,69.5  c28.4,11.6,57.8,17.6,85.1,17.6c9.9,0,19.7-0.8,29.4-2.5c36.2-6.4,62.1-24.5,72.9-50.8l17.1-41.8c3,1.2,6.1,2.3,9.1,3.2  c12.1,4,24.7,6.1,37.4,6.2c19.7,0,37.1-5.8,50.8-17.3l36.8-30.9C490.4,344.1,499.7,313.9,494.7,277.5z M266.8,333.4l24.5-20.6  c10.8,12.1,22.7,23,35.7,32.7l-24.1,20.3C289.7,356.4,277.6,345.5,266.8,333.4z M256.5,321.2c-3.3-4.3-6.5-8.6-9.5-13.1  c-0.3-0.6-0.7-1.2-1.1-1.8l-0.1,0c-5.9-8.9-11.2-18.2-15.7-27.9c6.9-4.2,13.6-8.9,20.2-13.9c1.7-1.3,3.4-2.6,5.1-4  c7.2,14.2,15.7,27.6,25.6,40L256.5,321.2z M234.1,330.2c-3.3,8.2-12.7,12.1-20.9,8.8l0,0l-37-15.1l9.9-24.2  c10.3-3.6,20.4-8,30.1-13.2c5,10.5,10.8,20.7,17.3,30.3C235.6,320.9,235.9,325.8,234.1,330.2L234.1,330.2z M215.9,362.3  c3.4,8.1-0.4,17.5-8.6,20.9c-3.9,1.6-8.3,1.7-12.2,0.1l-37-15.1l12.1-29.6l37,15.1C211.1,355.3,214.2,358.4,215.9,362.3L215.9,362.3  z M102,271.3c0.9,0,1.7,0,2.6,0l16.6,21.8c-21.1-1.9-37.9-10.1-48.4-23.9l-1.4-1.8C81.3,270,91.7,271.4,102,271.3z M142.2,293  c-0.3,0-0.6,0-0.9,0.1l-17.8-23.4c11.5-1.7,22.8-4.5,33.8-8.4l18.9,24.8C165.1,289.6,153.8,291.9,142.2,293z M214.8,231.1l19.4,25.4  c-13.2,9.4-27.4,17.4-42.3,23.7l-19.1-25.1C187.6,248.6,201.6,240.6,214.8,231.1L214.8,231.1z M246.9,246.9l-19.4-25.4  c12.6-10.2,24.1-21.6,34.3-34.1l19.1,25.1C270.9,225.1,259.5,236.7,246.9,246.9L246.9,246.9z M290.7,198.8L271.8,174  c6.7-9.6,12.4-19.7,17.1-30.4l17.8,23.4c-0.1,0.3-0.2,0.6-0.3,0.9C302.3,178.7,297.1,189.1,290.7,198.8L290.7,198.8z M312.1,147.6  l-16.6-21.8c3.3-10.7,5-21.9,5-33.1l1.4,1.8C312.4,108.4,315.8,126.8,312.1,147.6L312.1,147.6z M39.1,157.6  c11.3-30.4,34.7-60.2,65.8-83.9c31.1-23.7,66-38.3,98.4-41.2c3.8-0.3,7.5-0.5,11.1-0.5c25.8,0,46.3,8.5,58.4,24.4  c13.8,18.1,15.4,44.2,4.6,73.3c-11.3,30.4-34.7,60.2-65.8,83.9c-31.1,23.7-66,38.3-98.4,41.2c-31,2.7-55.7-5.8-69.5-23.9l0,0l0,0  C29.8,212.8,28.2,186.7,39.1,157.6L39.1,157.6z M60,278.8c15.2,20,40.2,30.7,71.1,30.7c4.1,0,8.3-0.2,12.5-0.6  c7.7-0.7,15.3-1.9,22.8-3.7l-23.3,56.9l-14.8-6.1l-6.1,14.8l14.8,6.1l-6.1,14.8l14.8,6.1L152,383l14.8,6.1l-6.1,14.8l14.8,6.1  l6.1-14.8l7.4,3c16.4,6.7,35-1.1,41.7-17.5c3.2-7.9,3.2-16.7-0.1-24.5c-0.3-0.6-0.6-1.2-0.9-1.9c8.4-2.9,15.3-9.2,18.8-17.4  c0.2,0.3,0.5,0.6,0.7,0.8c20.7,24.6,45.1,44.2,70.5,56.9c-9.2,19.9-30.4,33.7-59.9,38.9c-32,5.7-69.5,0.6-105.7-14.2  c-36.2-14.8-66.5-37.5-85.3-64c-18.1-25.3-23.2-50.9-14.6-72c1-2.5,2.3-5,3.7-7.3L60,278.8z M140.8,431l-12.1,29.6  c-14.8-6.6-28.8-14.8-41.8-24.5l11.9-29.2C111.9,416.4,126,424.4,140.8,431L140.8,431z M155.6,437c15.1,5.7,30.8,9.8,46.8,12.3  l-11.9,29.2c-16.1-2.2-31.8-6.2-47-11.9L155.6,437z M36.1,327.8l0.9-2.1c2.9,10.8,7.4,21.2,13.4,30.7L40,381.6  C30.9,362.5,29.5,343.8,36.1,327.8z M50.7,399.8c-0.2-0.3-0.4-0.5-0.5-0.8l11.1-27.2c7.3,9.1,15.5,17.4,24.4,24.9l-11.8,28.8  C65.2,417.8,57.4,409.2,50.7,399.8z M207.2,480l11.8-28.8c4.8,0.4,9.6,0.5,14.3,0.5c6.9,0,13.7-0.4,20.5-1.2l-11.1,27.2  c-0.3,0.1-0.6,0.1-0.9,0.2C230.3,479.9,218.7,480.6,207.2,480z M262.1,472.5l10.4-25.3c10.9-2.6,21.4-6.8,31-12.5l-0.9,2.1  C296,452.9,281.9,465.2,262.1,472.5z M316.9,374.9l23.8-20c9.9,6.2,20.3,11.4,31.1,15.6l-22.5,18.9c-0.3-0.1-0.6-0.2-0.9-0.3  C337.5,385.5,326.9,380.8,316.9,374.9z M421.5,381c-13.3,11.2-31.5,15.5-52.5,12.7l20.9-17.6c9.1,2.3,18.4,3.5,27.8,3.5  c1.9,0,3.7-0.1,5.5-0.2L421.5,381z M458.3,350.2c-17.5,14.7-43.4,17.5-73,8.1c-30.9-9.9-61.8-31.8-87-61.7  c-12-14.2-22.2-29.9-30.3-46.7c24.7-22.7,43.4-49.2,53.5-76.3c7.5-20.1,9.8-39.2,7-56.1c35.3,5.6,74.6,30.2,104.7,66  c25.2,29.9,41.4,64.2,45.8,96.3C483.1,310.5,475.8,335.5,458.3,350.2L458.3,350.2z"/>
  <path d="M418.7,218.1c-13.9-1.2-26.9,6.7-32.3,19.5l-13.3-3.9l-1.5-13.8c17.2-3.9,28.1-21,24.2-38.3c-3.9-17.2-21-28.1-38.3-24.2  c-17.2,3.9-28.1,21-24.2,38.3c2.5,11.3,11,20.3,22.1,23.6l1.9,17.2l-3.6,3c-14.4-10.2-34.3-6.9-44.6,7.5  c-10.2,14.4-6.9,34.3,7.5,44.6c14.4,10.2,34.3,6.9,44.6-7.5c6.7-9.5,7.8-21.9,2.8-32.3l3.6-3l16.6,4.8c1.8,15.1,13.9,26.9,29,28.2  c0.9,0.1,1.9,0.1,2.8,0.1c7.5,0,14.8-2.7,20.5-7.5v0c13.5-11.4,15.3-31.6,3.9-45.1C435,222.9,427.1,218.8,418.7,218.1L418.7,218.1z   M352.2,199c-5.7-6.8-4.8-16.9,2-22.5c6.8-5.7,16.9-4.8,22.5,2c5.7,6.8,4.8,16.9-2,22.5c-3.2,2.7-7.5,4.1-11.7,3.7  C358.8,204.3,354.9,202.3,352.2,199z M351,267c-0.8,8.8-8.5,15.3-17.3,14.5s-15.3-8.5-14.5-17.3c0.7-8.3,7.6-14.6,15.9-14.6  c0.5,0,0.9,0,1.4,0.1C345.2,250.5,351.8,258.2,351,267C351,267,351,267,351,267z M431.8,251.3c-0.4,4.2-2.4,8.1-5.6,10.9v0  c-6.8,5.7-16.9,4.8-22.5-2c-5.7-6.8-4.8-16.9,2-22.5c2.9-2.4,6.5-3.7,10.3-3.7c0.5,0,0.9,0,1.4,0.1  C426.1,234.8,432.6,242.5,431.8,251.3L431.8,251.3L431.8,251.3z"/>
  <path d="M457.1,155.6c2.5,3,5,6.1,7.4,9.2l12.8-9.7c-2.5-3.3-5.2-6.6-7.9-9.8c-25.5-30.3-57.1-53.4-89-64.9l-5.4,15.1  C404.2,106.1,433.4,127.4,457.1,155.6z"/>
  <path d="M361.7,75.1c-5.7-1.2-11.4-2-17.1-2.4l-1,16c5,0.3,10,1,14.9,2.1L361.7,75.1z"/>
  <path d="M361,432.1l-1.1,0l0.2,16l1.1,0c5.1-0.1,10.3-0.3,15.4-0.7l-1.3-16C370.6,431.7,365.8,432,361,432.1z"/>
  <path d="M390.8,429.6l2.3,15.8c28-4.2,53.9-13.1,75-26l-8.3-13.7C440.6,417.5,416.7,425.8,390.8,429.6z"/>
</svg>