<?xml version="1.0" encoding="utf-8"?>
<svg viewBox="-5 -10 110 135" xmlns="http://www.w3.org/2000/svg">
  <path d="M 67.971 46.857 C 67.943 45.481 68.565 44.253 69.47 43.88 L 69.47 43.067 C 69.47 42.524 69.772 42.085 70.144 42.085 C 70.513 42.088 70.81 42.528 70.81 43.067 L 70.81 43.88 C 71.583 44.182 72.162 45.118 72.288 46.272 C 72.317 46.529 72.274 46.791 72.173 47.002 C 72.069 47.212 71.912 47.357 71.736 47.399 C 71.554 47.454 71.362 47.399 71.208 47.245 C 71.05 47.086 70.952 46.842 70.927 46.571 C 70.829 45.973 70.442 45.571 70.022 45.649 C 69.81 45.649 69.608 45.781 69.467 46.01 C 69.323 46.235 69.254 46.539 69.266 46.847 C 69.266 47.166 69.352 47.469 69.507 47.692 C 69.66 47.918 69.871 48.043 70.086 48.043 C 70.662 48.043 71.218 48.376 71.624 48.975 C 72.032 49.568 72.262 50.371 72.262 51.213 C 72.285 52.596 71.663 53.825 70.754 54.203 L 70.754 54.839 C 70.754 55.376 70.454 55.811 70.086 55.821 C 69.718 55.821 69.417 55.382 69.417 54.839 L 69.417 54.229 C 68.605 53.872 68.032 52.824 67.971 51.595 C 67.911 51.319 67.935 51.022 68.045 50.777 C 68.151 50.538 68.323 50.376 68.519 50.339 C 68.718 50.301 68.913 50.395 69.057 50.591 C 69.202 50.792 69.279 51.068 69.266 51.358 C 69.326 51.988 69.718 52.441 70.154 52.385 C 70.372 52.385 70.581 52.26 70.734 52.034 C 70.887 51.811 70.974 51.509 70.974 51.19 C 70.974 50.87 70.887 50.567 70.734 50.344 C 70.581 50.12 70.372 49.994 70.154 49.994 C 68.957 50.003 67.984 48.601 67.971 46.857 Z M 104.887 64.366 L 99.146 74.562 C 98.693 75.367 98.036 75.883 97.324 75.981 L 97.052 75.981 C 96.43 75.981 95.828 75.667 95.347 75.097 L 92.765 72.013 L 92.387 71.868 C 89.153 70.672 81.722 67.741 79.424 63.492 L 60.456 63.492 L 60.456 73.855 L 53.026 73.855 C 52.692 75.429 51.622 76.412 50.507 76.167 C 49.389 75.925 48.565 74.522 48.565 72.876 C 48.565 71.232 49.389 69.834 50.507 69.587 C 51.622 69.344 52.692 70.33 53.026 71.907 L 59.121 71.907 L 59.121 63.529 L 49.744 63.529 C 49.375 63.529 49.077 63.094 49.077 62.558 L 49.077 57.471 L 45.795 57.471 C 45.469 59.042 44.401 60.024 43.287 59.78 C 42.174 59.538 41.351 58.145 41.351 56.506 C 41.351 54.864 42.174 53.465 43.287 53.223 C 44.401 52.984 45.469 53.966 45.795 55.532 L 49.077 55.532 L 49.077 49.335 L 43.088 49.335 L 43.091 49.335 C 42.757 50.91 41.688 51.894 40.572 51.651 C 39.454 51.404 38.627 50.007 38.627 48.363 C 38.627 46.711 39.454 45.315 40.572 45.072 C 41.688 44.828 42.757 45.81 43.091 47.385 L 49.104 47.385 L 49.104 41.201 L 45.821 41.201 C 45.491 42.77 44.421 43.757 43.303 43.515 C 42.187 43.271 41.36 41.869 41.36 40.224 C 41.36 38.58 42.187 37.174 43.303 36.932 C 44.421 36.69 45.491 37.671 45.821 39.247 L 49.104 39.247 L 49.104 35.409 C 49.104 34.873 49.4 34.437 49.766 34.437 L 59.12 34.437 L 59.12 26.062 L 53.024 26.062 C 52.692 27.638 51.622 28.623 50.506 28.375 C 49.387 28.132 48.564 26.736 48.564 25.088 C 48.564 23.44 49.387 22.043 50.506 21.799 C 51.622 21.553 52.692 22.537 53.024 24.111 L 60.455 24.111 L 60.455 34.476 L 90.457 34.476 C 90.825 34.476 91.124 34.906 91.129 35.442 L 91.129 39.177 L 91.292 39.261 C 95.395 41.533 97.782 45.458 99.398 52.761 L 104.509 58.864 L 104.509 58.859 C 105.647 60.234 105.817 62.688 104.886 64.366 L 104.887 64.366 Z M 51.802 25.033 C 51.827 24.649 51.741 24.267 51.561 23.976 C 51.381 23.692 51.129 23.528 50.863 23.528 C 50.596 23.528 50.343 23.692 50.164 23.976 C 49.987 24.267 49.899 24.649 49.924 25.033 C 49.968 25.739 50.374 26.281 50.862 26.281 C 51.349 26.281 51.756 25.739 51.802 25.033 Z M 44.549 40.228 C 44.549 39.676 44.322 39.183 43.972 38.97 C 43.623 38.757 43.22 38.873 42.953 39.267 C 42.688 39.654 42.608 40.243 42.752 40.752 C 42.896 41.262 43.236 41.595 43.615 41.595 C 44.13 41.588 44.546 40.981 44.549 40.228 Z M 41.857 48.366 L 41.861 48.366 C 41.864 47.811 41.637 47.305 41.288 47.089 C 40.935 46.87 40.531 46.983 40.258 47.371 C 39.986 47.759 39.9 48.347 40.037 48.863 C 40.178 49.376 40.519 49.723 40.899 49.729 C 41.153 49.735 41.392 49.595 41.576 49.339 C 41.755 49.085 41.857 48.736 41.861 48.366 L 41.857 48.366 Z M 44.549 56.506 C 44.549 55.954 44.322 55.451 43.972 55.242 C 43.623 55.032 43.22 55.149 42.953 55.535 C 42.688 55.928 42.608 56.514 42.752 57.023 C 42.896 57.537 43.236 57.869 43.615 57.869 C 44.13 57.859 44.546 57.253 44.549 56.506 Z M 51.802 72.896 C 51.802 72.341 51.575 71.84 51.22 71.625 C 50.865 71.409 50.461 71.532 50.192 71.924 C 49.92 72.315 49.84 72.91 49.987 73.424 C 50.132 73.94 50.478 74.271 50.86 74.271 C 51.108 74.271 51.349 74.126 51.526 73.869 C 51.702 73.61 51.802 73.26 51.802 72.896 Z M 90.21 61.565 L 91.114 60.453 C 89.857 58.742 89.308 56.205 89.652 53.752 L 90.121 50.606 C 90.21 50.003 90.121 49.371 89.874 48.871 C 89.665 48.399 89.34 48.066 88.964 47.946 C 88.733 48.03 88.144 48.291 87.661 48.544 L 87.661 53.752 C 87.661 54.293 87.359 54.732 86.986 54.732 C 86.5 54.703 86.025 54.97 85.673 55.461 C 85.32 55.951 85.121 56.63 85.115 57.341 C 85.115 57.877 84.821 58.306 84.452 58.306 L 73.614 58.306 C 73.096 58.723 72.544 59.042 71.974 59.266 C 70.161 59.99 68.22 59.644 66.577 58.306 L 55.756 58.306 C 55.388 58.306 55.089 57.877 55.082 57.341 C 55.082 55.892 54.279 54.719 53.288 54.719 C 52.919 54.713 52.622 54.274 52.622 53.737 L 52.622 44.179 C 52.622 43.641 52.919 43.202 53.288 43.196 C 54.276 43.196 55.079 42.034 55.082 40.589 C 55.089 40.05 55.388 39.62 55.756 39.62 L 66.599 39.62 C 68.785 37.874 71.431 37.874 73.614 39.62 L 84.452 39.62 C 84.818 39.62 85.113 40.046 85.116 40.574 C 85.82 40.192 86.594 39.77 87.288 39.377 L 87.291 39.377 C 88.073 38.935 88.913 38.743 89.753 38.816 L 89.753 36.424 L 50.374 36.424 L 50.374 61.552 L 90.21 61.552 L 90.21 61.565 Z M 81.259 45.375 C 81.171 44.043 81.625 42.761 82.427 42.107 C 82.693 41.916 82.964 41.749 83.247 41.607 L 75.355 41.607 C 77.622 45.03 78.063 50.225 76.427 54.348 C 76.127 55.083 75.768 55.76 75.355 56.373 L 83.853 56.373 C 84.119 54.625 85.051 53.264 86.249 52.875 L 86.249 49.194 C 84.009 50.221 83.215 50.39 82.763 50.104 C 82.074 49.623 81.302 47.169 81.259 45.375 Z M 63.764 43.627 C 64.061 42.875 64.424 42.177 64.847 41.555 L 56.354 41.555 C 56.084 43.299 55.154 44.66 53.961 45.051 L 53.961 52.875 C 55.153 53.27 56.084 54.63 56.354 56.373 L 64.829 56.373 C 62.569 52.942 62.135 47.75 63.764 43.627 Z M 67.151 56.527 C 68.525 57.7 70.169 58.027 71.711 57.424 C 73.252 56.826 74.564 55.353 75.355 53.331 C 76.557 50.259 76.367 46.431 74.877 43.641 C 73.387 40.849 70.89 39.643 68.554 40.588 C 66.244 41.542 64.549 44.412 64.245 47.878 C 63.936 51.353 65.081 54.755 67.151 56.527 Z M 104.198 61.672 C 104.16 61.149 103.983 60.668 103.704 60.332 L 98.436 54.049 L 98.439 54.049 C 98.341 53.929 98.266 53.773 98.225 53.597 C 96.979 47.805 95.248 43.464 90.842 41.047 L 90.842 41.043 C 89.855 40.568 88.784 40.611 87.816 41.163 C 86.849 41.724 85.766 42.361 84.881 42.781 L 84.824 42.781 C 84.078 43.174 83.241 43.632 83.093 43.748 L 83.09 43.748 C 82.802 43.954 82.625 44.385 82.632 44.848 C 82.622 46.067 82.879 47.263 83.361 48.259 C 84.677 47.861 85.971 47.328 87.234 46.665 C 88.678 45.973 88.874 45.897 89.089 45.973 L 89.086 45.973 C 89.855 46.169 90.535 46.81 90.973 47.744 C 91.413 48.686 91.575 49.838 91.426 50.951 L 90.941 54.12 C 90.659 56.037 91.14 58.019 92.187 59.244 L 92.582 59.735 C 92.738 59.91 92.83 60.186 92.83 60.476 C 92.825 60.767 92.738 61.038 92.592 61.231 L 90.951 63.309 C 90.826 63.46 90.672 63.54 90.514 63.54 L 81.328 63.54 C 84.058 66.685 90.22 69.069 92.755 70.036 L 93.271 70.242 C 93.363 70.278 93.451 70.343 93.524 70.432 L 96.222 73.653 L 96.225 73.648 C 96.807 74.336 97.663 74.211 98.135 73.363 L 103.878 63.179 C 104.105 62.754 104.208 62.211 104.157 61.672 L 104.198 61.672 Z" style="fill: rgb(0, 86, 183);"/>
  <path d="M 2.298 48.623 C 2.334 48.623 2.369 48.623 2.411 48.615 L 12.356 46.949 C 12.585 46.914 12.774 46.761 12.868 46.536 L 17.026 36.853 C 17.178 36.493 17.026 36.06 16.686 35.898 C 16.564 35.845 16.432 35.819 16.294 35.845 L 6.349 37.51 C 6.118 37.546 5.93 37.699 5.837 37.925 L 1.68 47.607 C 1.525 47.967 1.68 48.399 2.02 48.561 C 2.103 48.597 2.2 48.623 2.298 48.623 Z M 7.277 44.799 L 9.783 45.916 L 4.864 46.734 L 7.277 44.799 Z M 7.703 42.648 L 7.224 38.824 L 13.838 37.716 L 7.703 42.648 Z M 6.451 43.657 L 4.038 45.6 L 6.093 40.813 L 6.451 43.657 Z M 11.895 45.304 L 8.528 43.801 L 14.666 38.869 L 11.895 45.304 Z" style="fill: rgb(195, 158, 0);"/>
  <path d="M 2.759 33.775 C 3.493 33.189 4.261 32.65 5.062 32.174 L 4.397 30.913 C 3.534 31.427 2.717 31.992 1.934 32.624 C 0.171 34.046 -1.364 35.746 -2.505 37.537 L -1.373 38.337 C -0.318 36.673 1.115 35.099 2.759 33.775 Z" style="fill: rgb(195, 158, 0);"/>
  <path d="M 35.921 53.575 C 35.539 50.514 34.151 47.278 31.998 44.471 C 29.216 40.835 25.617 38.497 22.329 38.158 C 22.146 37.668 21.898 37.207 21.604 36.779 L 19.292 33.447 C 17.919 31.469 15.558 30.536 12.652 30.824 C 9.848 31.093 6.835 32.472 4.173 34.695 C 1.52 36.909 -0.49 39.735 -1.468 42.63 C -2.483 45.639 -2.295 48.386 -0.92 50.357 L 0.408 52.266 C 0.145 52.669 -0.078 53.096 -0.244 53.549 L -1.69 57.42 C -2.548 59.723 -2.086 62.425 -0.385 65.042 C 1.25 67.562 3.855 69.708 6.946 71.103 C 9.202 72.114 11.538 72.639 13.706 72.639 C 14.495 72.639 15.273 72.568 16.042 72.419 C 18.918 71.862 20.978 70.282 21.835 67.989 L 23.193 64.344 C 23.431 64.449 23.677 64.545 23.918 64.623 C 24.88 64.972 25.878 65.155 26.888 65.164 C 28.455 65.164 29.836 64.659 30.923 63.655 L 33.847 60.961 C 35.581 59.382 36.319 56.75 35.921 53.575 Z M 17.815 58.449 L 19.762 56.653 C 20.617 57.709 21.565 58.659 22.597 59.504 L 20.684 61.275 C 19.633 60.456 18.674 59.504 17.815 58.449 Z M 16.996 57.385 C 16.735 57.011 16.481 56.636 16.239 56.243 C 16.218 56.192 16.186 56.138 16.154 56.087 L 16.147 56.087 C 15.677 55.311 15.256 54.499 14.899 53.653 C 15.448 53.288 15.979 52.877 16.504 52.441 C 16.639 52.326 16.774 52.215 16.91 52.093 C 17.481 53.331 18.156 54.499 18.942 55.58 L 16.996 57.385 Z M 15.216 58.171 C 14.954 58.885 14.208 59.225 13.557 58.937 L 10.618 57.62 L 11.403 55.511 C 12.223 55.197 13.025 54.813 13.795 54.359 C 14.193 55.275 14.654 56.166 15.168 57.001 C 15.335 57.36 15.36 57.788 15.216 58.171 Z M 13.771 60.969 C 14.041 61.676 13.739 62.496 13.089 62.793 C 12.777 62.933 12.428 62.941 12.118 62.801 L 9.179 61.484 L 10.141 58.902 L 13.079 60.22 C 13.391 60.359 13.635 60.629 13.771 60.969 Z M 4.721 53.034 C 4.793 53.034 4.858 53.034 4.929 53.034 L 6.247 54.935 C 4.572 54.77 3.236 54.054 2.403 52.851 L 2.29 52.694 C 3.077 52.921 3.904 53.042 4.721 53.034 Z M 7.914 54.926 C 7.891 54.926 7.868 54.926 7.843 54.935 L 6.431 52.894 C 7.343 52.745 8.242 52.503 9.116 52.162 L 10.618 54.325 C 9.734 54.63 8.836 54.83 7.914 54.926 Z M 13.684 49.528 L 15.225 51.744 C 14.175 52.564 13.049 53.261 11.866 53.809 L 10.347 51.62 C 11.522 51.055 12.636 50.357 13.684 49.528 Z M 16.234 50.907 L 14.693 48.692 C 15.693 47.803 16.607 46.808 17.42 45.717 L 18.936 47.906 C 18.14 49.006 17.234 50.017 16.234 50.907 Z M 19.713 46.712 L 18.212 44.549 C 18.745 43.712 19.197 42.83 19.572 41.898 L 20.984 43.939 C 20.978 43.965 20.968 43.99 20.96 44.017 C 20.635 44.959 20.222 45.866 19.713 46.712 Z M 21.413 42.247 L 20.095 40.346 C 20.359 39.413 20.491 38.437 20.491 37.46 L 20.603 37.617 C 21.437 38.829 21.708 40.432 21.413 42.247 Z M -0.275 43.12 C 0.622 40.467 2.483 37.87 4.953 35.803 C 7.422 33.736 10.197 32.462 12.77 32.21 C 13.073 32.183 13.366 32.167 13.653 32.167 C 15.702 32.167 17.33 32.908 18.292 34.294 C 19.388 35.873 19.516 38.149 18.657 40.686 C 17.759 43.337 15.901 45.935 13.429 48.003 C 10.958 50.069 8.186 51.342 5.611 51.595 C 3.149 51.831 1.187 51.09 0.091 49.511 C -1.016 47.932 -1.141 45.656 -0.275 43.12 Z M 1.385 53.687 C 2.592 55.433 4.579 56.365 7.036 56.365 C 7.36 56.365 7.692 56.347 8.027 56.314 C 8.638 56.252 9.243 56.147 9.837 55.99 L 7.988 60.953 L 6.812 60.421 L 6.328 61.71 L 7.501 62.243 L 7.017 63.533 L 8.195 64.065 L 8.693 62.776 L 9.872 63.306 L 9.386 64.597 L 10.561 65.129 L 11.045 63.839 L 11.634 64.101 C 12.937 64.685 14.413 64.004 14.947 62.574 C 15.201 61.886 15.201 61.118 14.939 60.438 C 14.915 60.385 14.89 60.334 14.868 60.271 C 15.533 60.019 16.083 59.47 16.361 58.755 C 16.376 58.78 16.401 58.806 16.416 58.826 C 18.061 60.969 19.999 62.679 22.017 63.786 C 21.285 65.521 19.603 66.726 17.259 67.178 C 14.717 67.675 11.738 67.231 8.862 65.94 C 5.985 64.649 3.578 62.67 2.084 60.359 C 0.646 58.153 0.24 55.92 0.925 54.08 C 1.002 53.862 1.107 53.645 1.218 53.443 L 1.385 53.687 Z M 7.806 66.961 L 6.844 69.542 C 5.668 68.967 4.555 68.251 3.522 67.405 L 4.469 64.858 C 5.508 65.687 6.628 66.385 7.806 66.961 Z M 8.982 67.484 C 10.181 67.981 11.427 68.339 12.698 68.557 L 11.753 71.103 C 10.474 70.911 9.227 70.562 8.019 70.065 L 8.982 67.484 Z M -0.513 57.961 L -0.441 57.779 C -0.213 58.72 0.145 59.626 0.622 60.456 L -0.204 62.654 C -0.926 60.986 -1.04 59.356 -0.513 57.961 Z M 0.646 64.238 C 0.631 64.213 0.613 64.196 0.607 64.17 L 1.487 61.798 C 2.07 62.591 2.72 63.316 3.427 63.971 L 2.489 66.48 C 1.798 65.809 1.177 65.06 0.646 64.238 Z M 13.079 71.233 L 14.017 68.722 C 14.399 68.758 14.779 68.765 15.153 68.765 C 15.702 68.765 16.239 68.73 16.784 68.661 L 15.901 71.033 C 15.877 71.042 15.853 71.042 15.828 71.05 C 14.915 71.225 13.992 71.287 13.079 71.233 Z M 17.442 70.58 L 18.268 68.373 C 19.134 68.146 19.966 67.781 20.731 67.283 L 20.66 67.467 C 20.134 68.87 19.014 69.942 17.442 70.58 Z M 21.794 62.068 L 23.685 60.324 C 24.472 60.865 25.299 61.319 26.157 61.684 L 24.371 63.332 C 24.346 63.324 24.321 63.316 24.299 63.306 C 23.431 62.993 22.589 62.583 21.794 62.068 Z M 30.104 62.6 C 29.049 63.577 27.603 63.952 25.935 63.708 L 27.596 62.172 C 28.318 62.374 29.058 62.477 29.804 62.477 C 29.954 62.477 30.097 62.469 30.241 62.46 L 30.104 62.6 Z M 33.03 59.915 C 31.64 61.197 29.582 61.441 27.231 60.621 C 24.775 59.758 22.32 57.848 20.318 55.24 C 19.365 54.002 18.553 52.632 17.911 51.168 C 19.871 49.189 21.358 46.878 22.161 44.514 C 22.754 42.762 22.939 41.097 22.717 39.622 C 25.521 40.111 28.644 42.255 31.035 45.378 C 33.037 47.986 34.324 50.976 34.673 53.775 C 34.998 56.453 34.419 58.633 33.03 59.915 Z" style=""/>
  <path d="M 31.546 48.929 C 30.363 48.822 29.258 49.534 28.795 50.685 L 27.662 50.334 L 27.533 49.093 C 28.999 48.741 29.93 47.203 29.595 45.645 C 29.265 44.098 27.806 43.117 26.333 43.467 C 24.867 43.819 23.936 45.357 24.269 46.914 C 24.483 47.931 25.206 48.741 26.153 49.038 L 26.316 50.585 L 26.008 50.856 C 24.781 49.938 23.086 50.234 22.207 51.531 C 21.339 52.827 21.62 54.618 22.845 55.544 C 24.072 56.462 25.77 56.166 26.649 54.87 C 27.219 54.014 27.311 52.899 26.885 51.963 L 27.193 51.693 L 28.609 52.125 C 28.761 53.485 29.793 54.546 31.08 54.661 C 31.156 54.671 31.24 54.671 31.317 54.671 C 31.956 54.671 32.579 54.428 33.063 53.996 C 34.216 52.971 34.369 51.153 33.396 49.938 C 32.937 49.361 32.264 48.993 31.546 48.929 Z M 25.879 47.211 C 25.394 46.599 25.472 45.691 26.051 45.187 C 26.63 44.673 27.491 44.754 27.967 45.367 C 28.453 45.979 28.378 46.887 27.798 47.391 C 27.524 47.635 27.158 47.761 26.802 47.725 C 26.443 47.688 26.11 47.509 25.879 47.211 Z M 25.777 53.331 C 25.71 54.123 25.053 54.708 24.303 54.636 C 23.553 54.564 23.001 53.87 23.068 53.079 C 23.129 52.332 23.717 51.765 24.424 51.765 C 24.467 51.765 24.5 51.765 24.543 51.774 C 25.285 51.846 25.847 52.538 25.777 53.331 C 25.777 53.331 25.777 53.331 25.777 53.331 Z M 32.664 51.918 C 32.631 52.296 32.46 52.647 32.188 52.899 C 31.607 53.411 30.746 53.331 30.27 52.717 C 29.785 52.106 29.859 51.197 30.439 50.694 C 30.686 50.478 30.994 50.36 31.317 50.36 C 31.362 50.36 31.394 50.36 31.437 50.37 C 32.178 50.432 32.732 51.126 32.664 51.918 Z" style="fill: rgb(195, 158, 0);"/>
  <path d="M 30.073 41.234 C 30.228 41.459 30.383 41.692 30.533 41.924 L 31.331 41.197 C 31.176 40.949 31.007 40.702 30.838 40.462 C 29.25 38.191 27.283 36.459 25.294 35.599 L 24.959 36.73 C 26.777 37.525 28.596 39.121 30.073 41.234 Z" style=""/>
  <path d="M 26.691 36.06 C 26.204 35.953 25.718 35.881 25.232 35.845 L 25.149 37.284 C 25.573 37.313 25.999 37.375 26.415 37.475 L 26.691 36.06 Z" style="fill: rgb(195, 158, 0);"/>
  <path d="M 26.63 68.189 L 26.536 68.189 L 26.555 69.628 L 26.649 69.628 C 27.08 69.619 27.524 69.601 27.96 69.565 L 27.851 68.126 C 27.448 68.153 27.04 68.18 26.63 68.189 Z" style="fill: rgb(195, 158, 0);"/>
  <path d="M 29.172 67.964 L 29.367 69.385 C 31.752 69.007 33.96 68.206 35.757 67.045 L 35.05 65.813 C 33.415 66.875 31.377 67.621 29.172 67.964 Z" style="fill: rgb(195, 158, 0);"/>
</svg>