<?xml version="1.0" encoding="utf-8"?>
<svg viewBox="-5 -10 110 135" xmlns="http://www.w3.org/2000/svg">
  <path d="M 65.173 45.623 C 65.146 44.686 65.746 43.849 66.62 43.595 L 66.62 43.041 C 66.62 42.671 66.911 42.372 67.27 42.372 C 67.626 42.374 67.912 42.674 67.912 43.041 L 67.912 43.595 C 68.658 43.801 69.217 44.438 69.338 45.224 C 69.366 45.4 69.325 45.578 69.227 45.722 C 69.127 45.865 68.976 45.964 68.806 45.992 C 68.63 46.03 68.445 45.992 68.296 45.887 C 68.144 45.779 68.049 45.613 68.025 45.428 C 67.931 45.021 67.557 44.747 67.152 44.8 C 66.948 44.8 66.753 44.89 66.617 45.046 C 66.478 45.199 66.411 45.406 66.423 45.616 C 66.423 45.833 66.506 46.04 66.655 46.192 C 66.803 46.346 67.006 46.431 67.214 46.431 C 67.77 46.431 68.306 46.658 68.698 47.066 C 69.091 47.47 69.313 48.017 69.313 48.591 C 69.335 49.533 68.735 50.37 67.858 50.628 L 67.858 51.061 C 67.858 51.427 67.569 51.723 67.214 51.73 C 66.859 51.73 66.568 51.431 66.568 51.061 L 66.568 50.645 C 65.785 50.402 65.232 49.688 65.173 48.851 C 65.115 48.663 65.139 48.46 65.245 48.294 C 65.347 48.131 65.513 48.021 65.702 47.995 C 65.894 47.969 66.082 48.033 66.221 48.167 C 66.361 48.304 66.435 48.492 66.423 48.689 C 66.481 49.119 66.859 49.427 67.279 49.389 C 67.49 49.389 67.691 49.304 67.839 49.15 C 67.987 48.998 68.071 48.792 68.071 48.575 C 68.071 48.357 67.987 48.151 67.839 47.998 C 67.691 47.846 67.49 47.76 67.279 47.76 C 66.125 47.766 65.186 46.811 65.173 45.623 Z M 100.79 57.551 L 95.251 64.497 C 94.814 65.046 94.18 65.397 93.493 65.464 L 93.231 65.464 C 92.631 65.464 92.05 65.25 91.586 64.862 L 89.095 62.761 L 88.73 62.662 C 85.61 61.847 78.44 59.85 76.223 56.956 L 57.923 56.956 L 57.923 64.016 L 50.754 64.016 C 50.432 65.088 49.4 65.757 48.324 65.591 C 47.245 65.426 46.45 64.47 46.45 63.349 C 46.45 62.229 47.245 61.276 48.324 61.108 C 49.4 60.942 50.432 61.614 50.754 62.688 L 56.635 62.688 L 56.635 56.981 L 47.588 56.981 C 47.232 56.981 46.944 56.685 46.944 56.319 L 46.944 52.854 L 43.778 52.854 C 43.463 53.924 42.433 54.593 41.358 54.427 C 40.284 54.262 39.49 53.313 39.49 52.196 C 39.49 51.078 40.284 50.125 41.358 49.96 C 42.433 49.797 43.463 50.466 43.778 51.533 L 46.944 51.533 L 46.944 47.311 L 41.166 47.311 L 41.169 47.311 C 40.847 48.384 39.815 49.055 38.739 48.889 C 37.66 48.721 36.862 47.769 36.862 46.649 C 36.862 45.524 37.66 44.572 38.739 44.407 C 39.815 44.241 40.847 44.91 41.169 45.983 L 46.97 45.983 L 46.97 41.77 L 43.803 41.77 C 43.484 42.839 42.452 43.511 41.373 43.346 C 40.297 43.18 39.499 42.225 39.499 41.104 C 39.499 39.984 40.297 39.027 41.373 38.862 C 42.452 38.697 43.484 39.365 43.803 40.439 L 46.97 40.439 L 46.97 37.824 C 46.97 37.459 47.256 37.162 47.609 37.162 L 56.634 37.162 L 56.634 31.456 L 50.752 31.456 C 50.432 32.53 49.4 33.201 48.323 33.032 C 47.243 32.866 46.449 31.915 46.449 30.793 C 46.449 29.67 47.243 28.718 48.323 28.552 C 49.4 28.384 50.432 29.055 50.752 30.127 L 57.922 30.127 L 57.922 37.188 L 86.868 37.188 C 87.223 37.188 87.511 37.481 87.516 37.846 L 87.516 40.391 L 87.674 40.448 C 91.632 41.996 93.935 44.67 95.494 49.645 L 100.425 53.803 L 100.425 53.8 C 101.523 54.736 101.687 56.408 100.789 57.551 L 100.79 57.551 Z M 49.573 30.755 C 49.597 30.494 49.514 30.233 49.341 30.035 C 49.167 29.842 48.924 29.73 48.667 29.73 C 48.41 29.73 48.166 29.842 47.993 30.035 C 47.822 30.233 47.737 30.494 47.761 30.755 C 47.804 31.236 48.196 31.605 48.666 31.605 C 49.136 31.605 49.529 31.236 49.573 30.755 Z M 42.576 41.107 C 42.576 40.731 42.357 40.395 42.019 40.25 C 41.682 40.105 41.293 40.184 41.036 40.452 C 40.78 40.716 40.703 41.117 40.842 41.464 C 40.981 41.811 41.309 42.038 41.674 42.038 C 42.171 42.034 42.573 41.62 42.576 41.107 Z M 39.978 46.651 L 39.982 46.651 C 39.985 46.273 39.766 45.928 39.429 45.781 C 39.089 45.632 38.699 45.709 38.436 45.973 C 38.173 46.238 38.09 46.638 38.222 46.989 C 38.358 47.339 38.687 47.575 39.054 47.58 C 39.299 47.584 39.53 47.488 39.707 47.314 C 39.88 47.141 39.978 46.903 39.982 46.651 L 39.978 46.651 Z M 42.576 52.196 C 42.576 51.82 42.357 51.478 42.019 51.335 C 41.682 51.192 41.293 51.272 41.036 51.535 C 40.78 51.803 40.703 52.202 40.842 52.549 C 40.981 52.899 41.309 53.125 41.674 53.125 C 42.171 53.118 42.573 52.705 42.576 52.196 Z M 49.573 63.362 C 49.573 62.984 49.354 62.643 49.012 62.496 C 48.669 62.349 48.28 62.433 48.02 62.7 C 47.758 62.967 47.68 63.372 47.822 63.722 C 47.962 64.073 48.296 64.299 48.664 64.299 C 48.904 64.299 49.136 64.2 49.307 64.025 C 49.477 63.849 49.573 63.61 49.573 63.362 Z M 86.63 55.643 L 87.502 54.885 C 86.289 53.72 85.759 51.991 86.091 50.32 L 86.544 48.177 C 86.63 47.766 86.544 47.336 86.305 46.995 C 86.104 46.673 85.79 46.447 85.427 46.365 C 85.205 46.422 84.636 46.6 84.17 46.772 L 84.17 50.32 C 84.17 50.689 83.879 50.988 83.519 50.988 C 83.05 50.968 82.592 51.15 82.252 51.484 C 81.912 51.818 81.72 52.281 81.714 52.765 C 81.714 53.131 81.43 53.423 81.074 53.423 L 70.618 53.423 C 70.118 53.707 69.585 53.924 69.035 54.077 C 67.286 54.57 65.414 54.334 63.828 53.423 L 53.388 53.423 C 53.033 53.423 52.745 53.131 52.738 52.765 C 52.738 51.778 51.963 50.979 51.007 50.979 C 50.651 50.975 50.364 50.676 50.364 50.31 L 50.364 43.799 C 50.364 43.432 50.651 43.133 51.007 43.129 C 51.96 43.129 52.735 42.337 52.738 41.353 C 52.745 40.986 53.033 40.693 53.388 40.693 L 63.85 40.693 C 65.959 39.503 68.512 39.503 70.618 40.693 L 81.074 40.693 C 81.427 40.693 81.712 40.983 81.715 41.343 C 82.394 41.082 83.141 40.795 83.81 40.527 L 83.813 40.527 C 84.568 40.226 85.378 40.095 86.189 40.145 L 86.189 38.515 L 48.196 38.515 L 48.196 55.634 L 86.63 55.634 L 86.63 55.643 Z M 77.994 44.613 C 77.909 43.706 78.347 42.833 79.121 42.387 C 79.377 42.257 79.639 42.143 79.912 42.046 L 72.297 42.046 C 74.485 44.378 74.91 47.918 73.332 50.726 C 73.042 51.227 72.696 51.688 72.297 52.106 L 80.496 52.106 C 80.753 50.915 81.652 49.988 82.808 49.723 L 82.808 47.215 C 80.647 47.915 79.881 48.03 79.445 47.835 C 78.78 47.507 78.035 45.836 77.994 44.613 Z M 61.114 43.423 C 61.401 42.91 61.751 42.435 62.159 42.011 L 53.965 42.011 C 53.705 43.199 52.807 44.126 51.656 44.393 L 51.656 49.723 C 52.806 49.992 53.705 50.918 53.965 52.106 L 62.142 52.106 C 59.961 49.769 59.543 46.231 61.114 43.423 Z M 64.382 52.211 C 65.708 53.01 67.294 53.233 68.782 52.822 C 70.268 52.415 71.534 51.411 72.297 50.033 C 73.457 47.941 73.274 45.333 71.836 43.432 C 70.399 41.53 67.99 40.709 65.736 41.352 C 63.507 42.002 61.872 43.957 61.578 46.319 C 61.28 48.686 62.385 51.003 64.382 52.211 Z M 100.125 55.716 C 100.089 55.36 99.918 55.032 99.649 54.803 L 94.566 50.523 L 94.569 50.523 C 94.474 50.441 94.402 50.335 94.363 50.215 C 93.16 46.269 91.49 43.311 87.239 41.665 L 87.239 41.662 C 86.287 41.339 85.254 41.368 84.32 41.744 C 83.387 42.126 82.342 42.56 81.488 42.846 L 81.433 42.846 C 80.713 43.114 79.906 43.426 79.763 43.505 L 79.76 43.505 C 79.482 43.645 79.312 43.939 79.318 44.254 C 79.309 45.085 79.557 45.9 80.022 46.578 C 81.291 46.307 82.54 45.944 83.758 45.492 C 85.152 45.021 85.341 44.969 85.548 45.021 L 85.545 45.021 C 86.287 45.154 86.943 45.591 87.366 46.227 C 87.79 46.869 87.947 47.654 87.803 48.412 L 87.335 50.571 C 87.063 51.877 87.527 53.227 88.537 54.062 L 88.918 54.396 C 89.069 54.516 89.157 54.704 89.157 54.901 C 89.153 55.099 89.069 55.284 88.928 55.415 L 87.345 56.831 C 87.224 56.934 87.075 56.988 86.923 56.988 L 78.06 56.988 C 80.694 59.131 86.639 60.755 89.085 61.414 L 89.583 61.554 C 89.672 61.579 89.757 61.623 89.827 61.684 L 92.43 63.878 L 92.433 63.875 C 92.994 64.343 93.82 64.258 94.276 63.681 L 99.817 56.743 C 100.036 56.453 100.135 56.083 100.086 55.716 L 100.125 55.716 Z" style="fill: rgb(0, 86, 183);"/>
  <path d="M 6.3 45.663 C 6.327 45.663 6.352 45.663 6.383 45.656 L 13.652 44.269 C 13.819 44.24 13.957 44.112 14.026 43.925 L 17.066 35.86 C 17.177 35.56 17.066 35.2 16.817 35.065 C 16.728 35.021 16.631 34.999 16.53 35.021 L 9.261 36.407 C 9.092 36.437 8.955 36.565 8.887 36.753 L 5.848 44.817 C 5.735 45.117 5.848 45.476 6.097 45.611 C 6.158 45.641 6.228 45.663 6.3 45.663 Z M 9.94 42.478 L 11.771 43.408 L 8.176 44.09 L 9.94 42.478 Z M 10.251 40.687 L 9.901 37.502 L 14.735 36.579 L 10.251 40.687 Z M 9.336 41.527 L 7.572 43.145 L 9.074 39.158 L 9.336 41.527 Z M 13.315 42.899 L 10.854 41.647 L 15.34 37.539 L 13.315 42.899 Z" style="fill: rgb(195, 158, 0);"/>
  <path d="M 6.637 33.297 C 7.173 32.809 7.735 32.36 8.32 31.963 L 7.834 30.913 C 7.204 31.341 6.607 31.812 6.034 32.338 C 4.745 33.522 3.623 34.938 2.789 36.43 L 3.617 37.096 C 4.388 35.71 5.435 34.399 6.637 33.297 Z" style="fill: rgb(195, 158, 0);"/>
  <path d="M 32.414 50.371 C 32.115 47.74 31.026 44.959 29.338 42.546 C 27.157 39.421 24.335 37.412 21.757 37.12 C 21.614 36.699 21.419 36.303 21.189 35.935 L 19.376 33.071 C 18.299 31.371 16.449 30.569 14.17 30.817 C 11.971 31.048 9.609 32.233 7.522 34.144 C 5.442 36.047 3.866 38.476 3.099 40.964 C 2.303 43.55 2.451 45.911 3.529 47.605 L 4.57 49.246 C 4.364 49.592 4.189 49.959 4.059 50.349 L 2.925 53.676 C 2.252 55.655 2.615 57.978 3.948 60.227 C 5.23 62.393 7.273 64.237 9.696 65.436 C 11.465 66.305 13.297 66.756 14.996 66.756 C 15.615 66.756 16.225 66.695 16.828 66.567 C 19.083 66.089 20.698 64.731 21.37 62.76 L 22.435 59.627 C 22.621 59.717 22.814 59.8 23.003 59.867 C 23.757 60.167 24.54 60.324 25.332 60.332 C 26.56 60.332 27.643 59.898 28.496 59.035 L 30.788 56.719 C 32.148 55.362 32.726 53.1 32.414 50.371 Z M 18.218 54.56 L 19.745 53.017 C 20.415 53.924 21.158 54.741 21.967 55.467 L 20.467 56.989 C 19.644 56.285 18.891 55.467 18.218 54.56 Z M 17.576 53.646 C 17.371 53.324 17.172 53.002 16.983 52.664 C 16.966 52.62 16.941 52.574 16.916 52.53 L 16.91 52.53 C 16.542 51.863 16.212 51.165 15.932 50.438 C 16.362 50.124 16.779 49.771 17.19 49.396 C 17.296 49.298 17.402 49.202 17.509 49.097 C 17.956 50.161 18.485 51.165 19.102 52.094 L 17.576 53.646 Z M 16.18 54.321 C 15.975 54.935 15.39 55.227 14.88 54.98 L 12.575 53.848 L 13.19 52.035 C 13.833 51.765 14.462 51.435 15.066 51.045 C 15.378 51.832 15.739 52.598 16.143 53.316 C 16.273 53.624 16.293 53.992 16.18 54.321 Z M 15.047 56.726 C 15.259 57.334 15.022 58.039 14.512 58.294 C 14.268 58.414 13.994 58.421 13.751 58.301 L 11.447 57.169 L 12.201 54.95 L 14.505 56.082 C 14.749 56.202 14.941 56.434 15.047 56.726 Z M 7.952 49.906 C 8.008 49.906 8.059 49.906 8.114 49.906 L 9.148 51.54 C 7.834 51.398 6.787 50.783 6.134 49.749 L 6.046 49.614 C 6.663 49.809 7.311 49.913 7.952 49.906 Z M 10.455 51.532 C 10.437 51.532 10.419 51.532 10.4 51.54 L 9.292 49.786 C 10.007 49.658 10.712 49.45 11.398 49.157 L 12.575 51.016 C 11.882 51.278 11.178 51.45 10.455 51.532 Z M 14.979 46.893 L 16.188 48.797 C 15.364 49.502 14.481 50.101 13.553 50.572 L 12.363 48.691 C 13.284 48.205 14.157 47.605 14.979 46.893 Z M 16.978 48.078 L 15.77 46.174 C 16.554 45.41 17.271 44.555 17.908 43.617 L 19.097 45.499 C 18.473 46.444 17.763 47.313 16.978 48.078 Z M 19.706 44.472 L 18.529 42.613 C 18.947 41.894 19.302 41.136 19.595 40.335 L 20.703 42.089 C 20.698 42.111 20.69 42.133 20.684 42.156 C 20.429 42.966 20.105 43.745 19.706 44.472 Z M 21.039 40.635 L 20.006 39.001 C 20.212 38.199 20.316 37.36 20.316 36.52 L 20.404 36.655 C 21.058 37.697 21.271 39.075 21.039 40.635 Z M 4.034 41.385 C 4.738 39.105 6.197 36.873 8.133 35.096 C 10.07 33.32 12.245 32.225 14.263 32.008 C 14.5 31.985 14.73 31.971 14.955 31.971 C 16.561 31.971 17.838 32.608 18.592 33.799 C 19.451 35.156 19.551 37.113 18.878 39.293 C 18.174 41.572 16.717 43.805 14.779 45.582 C 12.841 47.358 10.668 48.452 8.649 48.669 C 6.719 48.872 5.181 48.235 4.321 46.878 C 3.454 45.521 3.355 43.565 4.034 41.385 Z M 5.336 50.467 C 6.283 51.968 7.84 52.769 9.766 52.769 C 10.02 52.769 10.281 52.754 10.544 52.725 C 11.023 52.672 11.497 52.582 11.963 52.447 L 10.513 56.712 L 9.591 56.255 L 9.212 57.363 L 10.131 57.821 L 9.752 58.93 L 10.675 59.387 L 11.066 58.279 L 11.99 58.735 L 11.609 59.844 L 12.53 60.302 L 12.91 59.193 L 13.372 59.418 C 14.393 59.92 15.551 59.335 15.969 58.106 C 16.169 57.514 16.169 56.854 15.963 56.27 C 15.944 56.224 15.925 56.18 15.908 56.126 C 16.429 55.91 16.86 55.438 17.078 54.823 C 17.09 54.845 17.11 54.867 17.121 54.884 C 18.411 56.726 19.931 58.196 21.513 59.147 C 20.939 60.639 19.62 61.674 17.782 62.063 C 15.789 62.49 13.453 62.108 11.198 60.999 C 8.943 59.889 7.055 58.188 5.884 56.202 C 4.757 54.306 4.438 52.387 4.975 50.805 C 5.036 50.618 5.118 50.431 5.205 50.258 L 5.336 50.467 Z M 10.37 61.876 L 9.616 64.095 C 8.694 63.6 7.821 62.985 7.012 62.258 L 7.754 60.069 C 8.569 60.781 9.447 61.381 10.37 61.876 Z M 11.292 62.326 C 12.232 62.753 13.209 63.061 14.206 63.248 L 13.465 65.436 C 12.462 65.271 11.485 64.971 10.537 64.544 L 11.292 62.326 Z M 3.848 54.141 L 3.904 53.984 C 4.083 54.793 4.364 55.572 4.738 56.285 L 4.09 58.174 C 3.524 56.741 3.435 55.34 3.848 54.141 Z M 4.757 59.536 C 4.745 59.514 4.731 59.5 4.726 59.477 L 5.416 57.439 C 5.873 58.12 6.383 58.743 6.937 59.306 L 6.201 61.463 C 5.66 60.886 5.173 60.242 4.757 59.536 Z M 14.505 65.548 L 15.24 63.39 C 15.54 63.421 15.838 63.427 16.131 63.427 C 16.561 63.427 16.983 63.397 17.409 63.337 L 16.717 65.376 C 16.698 65.384 16.679 65.384 16.66 65.391 C 15.944 65.541 15.221 65.594 14.505 65.548 Z M 17.925 64.987 L 18.573 63.09 C 19.252 62.895 19.905 62.581 20.504 62.153 L 20.449 62.311 C 20.036 63.517 19.158 64.438 17.925 64.987 Z M 21.338 57.671 L 22.821 56.172 C 23.438 56.637 24.086 57.027 24.759 57.341 L 23.358 58.757 C 23.338 58.75 23.319 58.743 23.302 58.735 C 22.621 58.466 21.961 58.113 21.338 57.671 Z M 27.854 58.128 C 27.026 58.968 25.892 59.29 24.584 59.08 L 25.887 57.76 C 26.453 57.934 27.033 58.022 27.618 58.022 C 27.735 58.022 27.848 58.015 27.961 58.008 L 27.854 58.128 Z M 30.148 55.82 C 29.057 56.922 27.444 57.132 25.6 56.427 C 23.675 55.685 21.75 54.044 20.18 51.802 C 19.433 50.738 18.797 49.561 18.293 48.302 C 19.83 46.601 20.996 44.615 21.626 42.583 C 22.091 41.077 22.236 39.646 22.061 38.379 C 24.26 38.799 26.709 40.642 28.583 43.326 C 30.153 45.567 31.162 48.137 31.436 50.543 C 31.691 52.845 31.236 54.718 30.148 55.82 Z" style=""/>
  <path d="M 27.679 45.918 C 26.814 45.829 26.006 46.422 25.668 47.38 L 24.84 47.088 L 24.746 46.054 C 25.817 45.761 26.497 44.48 26.253 43.183 C 26.011 41.894 24.945 41.077 23.868 41.369 C 22.797 41.662 22.117 42.943 22.36 44.24 C 22.516 45.087 23.045 45.761 23.737 46.009 L 23.856 47.297 L 23.631 47.523 C 22.734 46.758 21.495 47.005 20.853 48.085 C 20.218 49.164 20.423 50.656 21.319 51.427 C 22.216 52.192 23.457 51.945 24.099 50.866 C 24.516 50.153 24.584 49.224 24.272 48.445 L 24.497 48.22 L 25.532 48.58 C 25.643 49.712 26.397 50.596 27.338 50.692 C 27.394 50.7 27.455 50.7 27.511 50.7 C 27.979 50.7 28.434 50.498 28.788 50.138 C 29.63 49.284 29.742 47.77 29.031 46.758 C 28.695 46.278 28.203 45.971 27.679 45.918 Z M 23.537 44.487 C 23.182 43.977 23.239 43.221 23.662 42.801 C 24.086 42.373 24.715 42.441 25.063 42.951 C 25.418 43.461 25.363 44.217 24.939 44.637 C 24.739 44.84 24.472 44.945 24.211 44.915 C 23.949 44.884 23.706 44.735 23.537 44.487 Z M 23.462 49.584 C 23.413 50.244 22.933 50.731 22.385 50.671 C 21.837 50.611 21.433 50.033 21.482 49.374 C 21.526 48.752 21.956 48.28 22.473 48.28 C 22.504 48.28 22.529 48.28 22.56 48.287 C 23.102 48.347 23.513 48.924 23.462 49.584 C 23.462 49.584 23.462 49.584 23.462 49.584 Z M 28.496 48.407 C 28.472 48.722 28.347 49.014 28.148 49.224 C 27.723 49.651 27.094 49.584 26.746 49.073 C 26.391 48.564 26.446 47.807 26.87 47.388 C 27.051 47.208 27.275 47.11 27.511 47.11 C 27.544 47.11 27.568 47.11 27.599 47.118 C 28.141 47.17 28.546 47.748 28.496 48.407 Z" style="fill: rgb(195, 158, 0);"/>
  <path d="M 30.073 41.234 C 30.228 41.459 30.383 41.692 30.533 41.924 L 31.331 41.197 C 31.176 40.949 31.007 40.702 30.838 40.462 C 29.25 38.191 27.283 36.459 25.294 35.599 L 24.959 36.73 C 26.777 37.525 28.596 39.121 30.073 41.234 Z" style=""/>
  <path d="M 24.13 35.2 C 23.774 35.111 23.419 35.051 23.063 35.021 L 23.003 36.219 C 23.313 36.243 23.624 36.295 23.929 36.378 L 24.13 35.2 Z" style="fill: rgb(195, 158, 0);"/>
  <path d="M 24.086 61.959 L 24.017 61.959 L 24.03 63.157 L 24.099 63.157 C 24.415 63.15 24.739 63.135 25.058 63.105 L 24.978 61.906 C 24.684 61.929 24.385 61.951 24.086 61.959 Z" style="fill: rgb(195, 158, 0);"/>
  <path d="M 25.943 61.771 L 26.086 62.955 C 27.829 62.64 29.444 61.973 30.757 61.006 L 30.24 59.98 C 29.045 60.864 27.555 61.486 25.943 61.771 Z" style="fill: rgb(195, 158, 0);"/>
</svg>