<?xml version="1.0" standalone="no"?>
<!DOCTYPE svg PUBLIC "-//W3C//DTD SVG 20010904//EN"
 "http://www.w3.org/TR/2001/REC-SVG-20010904/DTD/svg10.dtd">
<svg version="1.0" xmlns="http://www.w3.org/2000/svg"
 width="500.000000pt" height="500.000000pt" viewBox="0 0 500.000000 500.000000"
 preserveAspectRatio="xMidYMid meet">

<g transform="translate(0.000000,500.000000) scale(0.100000,-0.100000)"
fill="#000000" stroke="none">
<path d="M0 2500 l0 -2500 2500 0 2500 0 0 2500 0 2500 -2500 0 -2500 0 0
-2500z m3480 1442 l0 -988 -94 -99 c-128 -137 -546 -515 -570 -515 -3 0 -6
583 -6 1295 l0 1295 335 0 335 0 0 -988z m-1020 -1286 l0 -584 -137 -89 c-141
-92 -316 -197 -455 -273 l-78 -42 0 786 0 786 335 0 335 0 0 -584z m1013
-1607 c-11 -10 -651 -379 -658 -379 -3 0 -5 235 -5 523 l0 523 103 71 c114 78
360 270 482 376 l80 69 3 -588 c1 -323 -1 -591 -5 -595z m-2043 778 l0 -334
-107 -46 c-185 -78 -529 -207 -552 -207 -8 0 -11 137 -11 460 l0 460 335 0
335 0 0 -333z m1028 -853 l-3 -517 -155 -88 c-86 -49 -166 -89 -180 -88 -14 0
-92 40 -175 89 l-150 88 -3 350 -2 349 97 43 c103 44 343 167 478 244 44 25
83 46 88 46 4 0 6 -232 5 -516z m-1028 -134 l0 -171 -22 12 c-36 19 -227 128
-291 166 l-58 35 172 59 c94 32 174 61 177 64 18 18 22 -13 22 -165z"/>
</g>
</svg>
